<svg width="600" height="600" viewBox="0 0 600 600" fill="none" xmlns="http://www.w3.org/2000/svg">
<rect width="600" height="600" fill="white"/>
<path fill-rule="evenodd" clip-rule="evenodd" d="M321.433 96.7751L389.22 164.562C389.611 164.953 389.611 165.586 389.22 165.976L223.708 331.489C223.078 332.119 222.001 331.672 222.001 330.782V154.196C222.001 153.93 222.106 153.676 222.293 153.488L279.007 96.7751C290.722 85.0594 309.717 85.0593 321.433 96.7751ZM333.878 307.585C333.488 307.195 333.488 306.561 333.878 306.171L431.647 208.403C432.037 208.012 432.67 208.012 433.061 208.403L503.666 279.008C515.382 290.723 515.382 309.718 503.666 321.434L426.404 398.696C426.013 399.087 425.38 399.087 424.99 398.696L333.878 307.585ZM291.452 350.011C291.061 349.621 290.428 349.621 290.038 350.011L208.402 431.647C208.011 432.038 208.011 432.671 208.402 433.062L279.007 503.667C290.722 515.383 309.717 515.383 321.433 503.667L382.563 442.537C382.954 442.146 382.954 441.513 382.563 441.123L291.452 350.011ZM162.001 216.196C162.001 215.305 160.923 214.858 160.293 215.488L96.7741 279.008C85.0584 290.723 85.0584 309.718 96.7741 321.434L160.293 384.953C160.923 385.583 162.001 385.137 162.001 384.246V216.196Z" fill="url(#paint0_linear_5223_124706)"/>
<defs>
<linearGradient id="paint0_linear_5223_124706" x1="132.005" y1="127.144" x2="313.912" y2="331.005" gradientUnits="userSpaceOnUse">
<stop offset="0.839326" stop-color="#26E5F1"/>
<stop offset="0.9375" stop-color="#389AFF"/>
</linearGradient>
</defs>
</svg>
