<svg width="1132" height="766" viewBox="0 0 1132 766" fill="none" xmlns="http://www.w3.org/2000/svg">
<path d="M934 409.694V92.2552C934 41.3041 892.61 0 841.554 0C816.927 0 793.317 9.80619 775.962 27.2435L486.927 317.654C475.888 328.746 475.974 346.674 487.118 357.66L509.734 379.951C565.057 434.483 654.104 434.264 709.157 379.459L818.543 270.567C823.735 265.398 832.095 265.256 837.461 270.245C843.047 275.438 843.27 284.197 837.955 289.666L801.057 327.642C795.627 333.231 795.752 342.151 801.336 347.586L885.928 429.918C903.86 447.371 934 434.692 934 409.694Z" fill="url(#paint0_linear_102_345)"/>
<path d="M198 29.361V345.407C198 396.469 239.48 437.863 290.648 437.863C315.16 437.863 338.673 428.169 356.038 410.904L644.862 123.74C656 112.666 655.961 94.6559 644.775 83.6299L622.266 61.4431C566.943 6.91088 477.896 7.13044 422.843 61.935L313.457 170.827C308.265 175.996 299.905 176.139 294.539 171.15C288.953 165.956 288.73 157.198 294.045 151.728L331.065 113.626C336.447 108.087 336.379 99.2626 330.913 93.8066L246.325 9.38669C228.493 -8.4105 198 4.19308 198 29.361Z" fill="url(#paint1_linear_102_345)"/>
<path d="M241.722 566C262.507 566 278.545 572.38 289.836 585.141C301.126 597.641 306.772 618.865 306.772 648.812V733.188C306.772 743.865 303.436 751.938 296.764 757.406C290.349 762.615 282.266 765.219 272.515 765.219C262.764 765.219 254.553 762.615 247.881 757.406C241.466 751.938 238.258 743.865 238.258 733.188V647.25C238.258 636.833 236.462 629.542 232.869 625.375C229.277 621.208 224.016 619.125 217.088 619.125C208.107 619.125 200.922 622.38 195.533 628.891C190.145 635.401 187.45 644.385 187.45 655.844V733.188C187.45 743.865 184.243 751.938 177.828 757.406C171.412 762.615 163.201 765.219 153.193 765.219C143.442 765.219 135.231 762.615 128.559 757.406C122.144 751.938 118.937 743.865 118.937 733.188V647.25C118.937 636.833 117.14 629.542 113.548 625.375C109.955 621.208 104.695 619.125 97.7667 619.125C88.7855 619.125 81.6005 622.38 76.2118 628.891C71.0797 635.401 68.5136 644.385 68.5136 655.844V733.188C68.5136 743.865 65.1778 751.938 58.506 757.406C52.0909 762.615 44.0078 765.219 34.2568 765.219C24.5058 765.219 16.2944 762.615 9.6227 757.406C3.20757 751.938 0 743.865 0 733.188V598.031C0 587.875 3.33587 580.193 10.0076 574.984C16.936 569.516 25.1473 566.781 34.6417 566.781C43.6229 566.781 51.0645 569.255 56.9664 574.203C63.1249 578.891 66.3325 585.792 66.5891 594.906C79.1628 575.635 98.4082 566 124.325 566C151.782 566 170.129 577.328 179.367 599.984C185.782 589.568 194.379 581.365 205.156 575.375C215.933 569.125 228.122 566 241.722 566Z" fill="#012C25"/>
<path d="M491.08 701.156C496.982 701.156 501.729 703.5 505.321 708.188C509.17 712.875 511.095 718.995 511.095 726.547C511.095 736.964 506.091 744.906 496.083 750.375C487.359 754.802 476.966 758.578 464.906 761.703C453.102 764.568 442.196 766 432.189 766C411.147 766 392.8 761.964 377.147 753.891C361.494 745.818 349.433 734.229 340.965 719.125C332.497 704.021 328.263 686.312 328.263 666C328.263 646.729 332.241 629.542 340.196 614.437C348.407 599.073 359.698 587.224 374.068 578.891C388.694 570.297 405.117 566 423.336 566C441.042 566 456.566 569.906 469.91 577.719C483.253 585.531 493.517 596.599 500.702 610.922C508.144 625.245 511.865 642.042 511.865 661.312C511.865 667.302 510.453 671.99 507.631 675.375C505.065 678.5 501.216 680.062 496.083 680.062H394.468C396.264 692.562 400.241 701.547 406.4 707.016C412.558 712.484 421.668 715.219 433.728 715.219C440.143 715.219 446.045 714.568 451.434 713.266C456.823 711.703 462.853 709.62 469.525 707.016C473.374 705.453 477.095 704.151 480.687 703.109C484.536 701.807 488 701.156 491.08 701.156ZM425.26 612.875C416.279 612.875 409.094 615.87 403.705 621.859C398.317 627.589 395.109 636.052 394.083 647.25H454.513C452.974 624.333 443.223 612.875 425.26 612.875Z" fill="#012C25"/>
<path d="M617.774 766C600.582 766 586.084 764.698 574.28 762.094C562.476 759.49 552.084 755.323 543.102 749.594C539.51 747.771 536.687 744.646 534.634 740.219C532.581 735.792 531.555 730.844 531.555 725.375C531.555 718.344 533.351 712.615 536.944 708.188C540.793 703.5 545.54 701.156 551.185 701.156C555.035 701.156 558.627 701.677 561.963 702.719C565.299 703.5 569.404 704.932 574.28 707.016C582.491 709.88 589.676 712.094 595.835 713.656C602.25 715.219 610.333 716 620.084 716C627.012 716 632.401 715.089 636.25 713.266C640.356 711.182 642.409 708.318 642.409 704.672C642.409 701.807 641.382 699.594 639.329 698.031C637.533 696.469 633.941 695.036 628.552 693.734C623.163 692.172 614.054 690.089 601.223 687.484C578.386 683.057 561.834 676.417 551.57 667.562C541.563 658.448 536.559 645.687 536.559 629.281C536.559 617.302 540.151 606.495 547.336 596.859C554.778 587.224 564.914 579.672 577.744 574.203C590.574 568.734 604.944 566 620.854 566C632.401 566 643.563 567.432 654.341 570.297C665.375 573.161 675.126 577.198 683.594 582.406C691.549 587.094 695.526 594.646 695.526 605.062C695.526 612.354 693.601 618.474 689.752 623.422C685.903 628.37 681.156 630.844 675.511 630.844C668.839 630.844 660.884 628.63 651.646 624.203C645.488 621.339 639.971 619.255 635.095 617.953C630.476 616.391 624.959 615.609 618.544 615.609C612.129 615.609 607.125 616.651 603.533 618.734C599.94 620.557 598.144 623.292 598.144 626.937C598.144 631.104 600.582 634.359 605.457 636.703C610.59 639.047 620.597 641.651 635.48 644.516C660.371 648.943 677.948 655.714 688.213 664.828C698.477 673.682 703.609 686.573 703.609 703.5C703.609 722.51 695.783 737.745 680.13 749.203C664.733 760.401 643.948 766 617.774 766Z" fill="#012C25"/>
<path d="M818.931 766C798.146 766 779.799 761.964 763.889 753.891C748.236 745.557 736.048 733.839 727.323 718.734C718.855 703.63 714.621 685.922 714.621 665.609C714.621 645.297 718.855 627.719 727.323 612.875C736.048 597.771 748.236 586.182 763.889 578.109C779.542 570.036 797.89 566 818.931 566C839.973 566 858.32 570.036 873.973 578.109C889.626 586.182 901.686 597.771 910.154 612.875C918.879 627.719 923.241 645.297 923.241 665.609C923.241 685.922 918.879 703.63 910.154 718.734C901.686 733.839 889.626 745.557 873.973 753.891C858.32 761.964 839.973 766 818.931 766ZM818.931 714.047C843.309 714.047 855.497 697.901 855.497 665.609C855.497 633.318 843.309 617.172 818.931 617.172C794.554 617.172 782.365 633.318 782.365 665.609C782.365 697.901 794.554 714.047 818.931 714.047Z" fill="#012C25"/>
<path d="M1065.03 566C1087.61 566 1104.41 572.901 1115.45 586.703C1126.48 600.245 1132 620.948 1132 648.812V733.188C1132 743.083 1128.92 750.896 1122.76 756.625C1116.6 762.354 1108.26 765.219 1097.74 765.219C1087.22 765.219 1078.88 762.354 1072.72 756.625C1066.57 750.896 1063.49 743.083 1063.49 733.188V651.937C1063.49 640.479 1061.43 632.146 1057.33 626.937C1053.48 621.729 1047.58 619.125 1039.62 619.125C1029.36 619.125 1021.15 622.51 1014.99 629.281C1009.09 635.792 1006.14 644.646 1006.14 655.844V733.188C1006.14 743.083 1003.06 750.896 996.897 756.625C990.739 762.354 982.399 765.219 971.878 765.219C961.357 765.219 953.018 762.354 946.859 756.625C940.701 750.896 937.621 743.083 937.621 733.188V598.031C937.621 588.917 940.829 581.495 947.244 575.766C953.659 569.776 961.999 566.781 972.263 566.781C982.014 566.781 989.712 569.516 995.358 574.984C1001.26 580.453 1004.21 587.615 1004.21 596.469C1010.88 586.573 1019.48 579.021 1030 573.812C1040.52 568.604 1052.2 566 1065.03 566Z" fill="#012C25"/>
<defs>
<linearGradient id="paint0_linear_102_345" x1="198" y1="0" x2="944.273" y2="18.266" gradientUnits="userSpaceOnUse">
<stop stop-color="#04CF86"/>
<stop offset="1" stop-color="#03C6D2"/>
</linearGradient>
<linearGradient id="paint1_linear_102_345" x1="198" y1="0" x2="944.273" y2="18.266" gradientUnits="userSpaceOnUse">
<stop stop-color="#04CF86"/>
<stop offset="1" stop-color="#03C6D2"/>
</linearGradient>
</defs>
</svg>
