<svg class="footer-logo" width="100%" height="100%" viewBox="0 0 246 246" version="1.1" xmlns="http://www.w3.org/2000/svg" xmlns:xlink="http://www.w3.org/1999/xlink" xml:space="preserve" style="fill-rule:evenodd;clip-rule:evenodd;stroke-linejoin:round;stroke-miterlimit:2;"><rect id="Artboard11" x="0" y="-0" width="245.295" height="245.197" style="fill:none;"/><clipPath id="_clip1"><rect x="0" y="-0" width="245.295" height="245.197"/></clipPath><g clip-path="url(#_clip1)"><rect x="0" y="0" width="245.436" height="245.197" style="fill:#ebb600;"/><rect x="0" y="0" width="245.436" height="245.197" style="fill:#ebb600;"/><g><path d="M110.734,178.51c0.691,-1.235 1.995,-1.999 3.41,-1.999l25.979,-0c2.765,-0 5.519,-0.352 8.195,-1.047c23.865,-6.169 40.897,-27.789 40.897,-52.866c0,-13.658 -5.053,-26.295 -13.51,-35.968c-10.003,-11.411 -24.44,-17.955 -39.615,-17.955c-8.55,-0.005 -22.259,-0.005 -27.098,-0.005c-0.468,0 -0.916,-0.185 -1.246,-0.516c-0.33,-0.33 -0.516,-0.778 -0.516,-1.245c0,-6.003 0,-25.623 0,-31.63c0,-0.467 0.186,-0.915 0.517,-1.246c0.331,-0.33 0.779,-0.515 1.247,-0.515c6.33,0.008 28.09,0.034 38.601,0.047c4.731,0.005 9.434,0.725 13.951,2.135c37.713,11.727 63.941,46.757 63.941,86.898c-0,26.539 -11.464,50.843 -30.132,67.656c-15.29,13.744 -35.117,21.356 -55.676,21.374c-15.23,0.023 -38.606,0.045 -45.523,0.051c-0.415,0 -0.798,-0.219 -1.008,-0.576c-0.21,-0.358 -0.214,-0.8 -0.012,-1.161c3.305,-5.903 14.083,-25.155 17.598,-31.432Z"/><path d="M65.509,143.327c0,-0.627 -0.509,-1.136 -1.136,-1.136c-6.088,-0 -34.856,-0 -42.626,-0c-0.404,-0 -0.777,-0.214 -0.981,-0.562c-0.204,-0.348 -0.208,-0.778 -0.011,-1.13c6.775,-12.102 47.898,-85.554 57.767,-103.182c0.253,-0.451 0.778,-0.675 1.279,-0.545c0.5,0.131 0.849,0.583 0.849,1.1c0,12.711 0,49.298 0,56.217c0,0.627 0.509,1.136 1.137,1.136c6.087,0 34.855,0 42.626,0c0.403,0 0.776,0.214 0.98,0.562c0.204,0.348 0.208,0.778 0.011,1.13c-6.775,12.102 -47.898,85.554 -57.767,103.182c-0.253,0.451 -0.778,0.675 -1.278,0.545c-0.501,-0.131 -0.85,-0.583 -0.85,-1.1l0,-56.217Z"/></g></g></svg>