<svg width="240" height="201" viewBox="0 0 240 201" fill="none" xmlns="http://www.w3.org/2000/svg">
<path fill-rule="evenodd" clip-rule="evenodd" d="M190.598 93.5688L160.91 44.4724L176.287 19.309L221.191 93.5688H190.598ZM89.5447 162.565H149.565L164.549 187.124H74.8311L89.5447 162.565ZM149.544 37.8315H89.4719L74.7888 13.2145H164.586L149.544 37.8315ZM149.499 149.356H89.4562L59.7291 100.196L89.4562 51.0362H149.499L179.225 100.196L149.499 149.356ZM63.1281 19.3616L78.0735 44.4175L48.3613 93.5529H18.2667L63.1281 19.3616ZM18.2535 106.762H48.3129L78.1094 156.037L63.1496 181.009L18.2535 106.762ZM176.27 181.06L160.923 155.905L190.63 106.777H221.188L176.27 181.06ZM181.919 3.17582C180.726 1.20392 178.596 0 176.3 0H63.1492C60.8525 0 58.7224 1.20392 57.5307 3.17582L0.955942 96.7385C-0.318249 98.8455 -0.318846 101.49 0.955344 103.597L57.5307 197.16C58.7224 199.132 60.8525 200.336 63.1492 200.336H176.3C178.596 200.336 180.726 199.132 181.919 197.16L238.494 103.597C239.769 101.49 239.769 98.8455 238.494 96.7385L181.919 3.17582Z" fill="#FD627A"/>
<path fill-rule="evenodd" clip-rule="evenodd" d="M153.502 110.481C150.435 108.53 146.373 109.445 144.43 112.527L132.794 130.984C130.852 134.066 131.763 138.146 134.831 140.098C135.922 140.793 137.139 141.124 138.342 141.124C140.52 141.124 142.651 140.038 143.902 138.053L155.538 119.595C157.481 116.514 156.569 112.433 153.502 110.481Z" fill="#FD627A"/>
<path fill-rule="evenodd" clip-rule="evenodd" d="M163.068 93.4858C159.94 91.6364 155.908 92.6854 154.068 95.83L153.212 97.2921C151.371 100.436 152.416 104.484 155.546 106.334C156.592 106.953 157.74 107.247 158.872 107.247C161.125 107.247 163.32 106.082 164.545 103.99L165.401 102.528C167.242 99.3835 166.197 95.3358 163.068 93.4858Z" fill="#FD627A"/>
</svg>
