<?xml version="1.0" encoding="utf-8"?>
<!-- Generator: Adobe Illustrator 24.3.0, SVG Export Plug-In . SVG Version: 6.00 Build 0)  -->
<svg version="1.1" id="图层_1" xmlns="http://www.w3.org/2000/svg" xmlns:xlink="http://www.w3.org/1999/xlink" x="0px" y="0px"
	 viewBox="0 0 400 400" style="enable-background:new 0 0 400 400;" xml:space="preserve">
<style type="text/css">
	.st0{fill:#FFFFFF;}
	.st1{fill:#0A0A0A;}
	.st2{fill:#FD009C;}
</style>
<rect width="400" height="400"/>
<g>
	<g>
		<path class="st2" d="M257.3,305.23c-12.42,0-24.81-3.24-36-9.7c-13.62-7.86-24.08-19.65-30.24-34.09
			c-9-21.08-7.59-44.54,3.86-64.37c5.8-10.05,14.04-18.63,23.82-24.83c1.44-0.91,2.94-1.79,4.47-2.61
			c12.23-7.93,19.51-21.3,19.51-35.86c0-5.59-1.07-11.03-3.18-16.18c-3.33-8.13-9.26-15.2-16.71-19.93
			c-2.38-1.37-4.87-2.63-7.41-3.75c-9.93-4.38-20.5-6.6-31.44-6.6c-9.03,0-17.89,1.53-26.32,4.55c-7.56,2.71-15.89-1.16-18.7-8.69
			c-2.8-7.53,0.96-15.91,8.45-18.81c41.32-15.99,86.99-12.47,125.3,9.65c46.8,27.02,74.63,77.36,72.64,131.41
			c-0.09,5.21-0.57,10.44-1.41,15.57c-2.11,12.73-6.47,24.89-12.96,36.14c-7.48,12.95-17.34,23.98-29.32,32.79
			c-3.3,2.57-6.83,4.86-10.52,6.82C280.49,302.41,268.89,305.23,257.3,305.23z M265.77,104.31c0.32,0.71,0.63,1.43,0.93,2.16
			c3.56,8.7,5.37,17.89,5.37,27.31c0,24.85-12.56,47.63-33.6,60.94c-0.33,0.21-0.68,0.41-1.02,0.59c-1.03,0.54-2.03,1.12-2.99,1.73
			c-5.87,3.72-10.62,8.67-14.11,14.71c-6.79,11.75-7.62,25.67-2.28,38.18c3.65,8.55,9.84,15.53,17.92,20.19
			c12.83,7.41,28.32,7.67,41.43,0.71c0,0,0,0,0,0c2.22-1.18,4.35-2.57,6.34-4.13c0.13-0.1,0.26-0.2,0.4-0.3
			c8.75-6.41,15.96-14.46,21.43-23.93c4.72-8.18,7.89-17.01,9.42-26.25c0.62-3.76,0.97-7.6,1.03-11.41c0-0.11,0-0.21,0.01-0.32
			C317.55,164.35,298.48,126.75,265.77,104.31z"/>
	</g>
	<g>
		<path class="st2" d="M118.02,316.58c-3.23,0-6.48-1.06-9.19-3.24c-34.5-27.79-54.29-69.1-54.29-113.34
			c0-54.04,29.69-103.31,77.48-128.62c4.55-2.52,9.33-4.73,14.19-6.56c12.08-4.54,24.79-6.85,37.77-6.85c14.96,0,29.44,3.03,43.05,9
			c3.88,1.57,7.63,3.49,11.16,5.7c21.21,13.28,33.87,36.13,33.87,61.11c0,15.73-4.98,30.68-14.4,43.23
			c-13.76,18.33-34.78,28.84-57.67,28.84c-11.6,0-23.16-2.84-33.41-8.22c-1.51-0.79-3.02-1.65-4.49-2.56
			c-12.98-6.62-28.2-6.25-40.81,1.03c-4.84,2.8-9.02,6.45-12.43,10.85c-5.38,6.95-8.53,15.62-8.9,24.44c0,2.75,0.16,5.54,0.46,8.29
			c1.17,10.78,4.54,21.05,10,30.52c4.52,7.82,10.27,14.72,17.1,20.51c6.13,5.19,6.94,14.35,1.82,20.54
			C126.44,314.77,122.25,316.58,118.02,316.58z M183.98,87.32c-9.44,0-18.68,1.67-27.44,4.97c-3.56,1.34-7.06,2.96-10.4,4.82
			c-0.09,0.05-0.19,0.1-0.28,0.15c-35.52,18.76-58.54,54.08-61.63,93.63c0.46-0.63,0.93-1.26,1.41-1.88
			c5.75-7.43,12.8-13.59,20.97-18.31c21.52-12.43,47.53-12.94,69.58-1.37c0.35,0.18,0.69,0.38,1.02,0.59c0.98,0.62,1.99,1.2,3,1.73
			c6.16,3.23,12.81,4.86,19.79,4.86c13.57,0,26.04-6.24,34.2-17.11c5.58-7.43,8.53-16.29,8.53-25.62c0-14.81-7.51-28.36-20.1-36.24
			c0,0,0,0,0,0c-2.13-1.33-4.4-2.49-6.74-3.43c-0.16-0.06-0.31-0.13-0.46-0.19C205.49,89.54,194.92,87.32,183.98,87.32z"/>
	</g>
	<g>
		<path class="st2" d="M199.99,345.51c-26.86,0-53.69-7.46-77.39-22.33c-4.47-2.68-8.76-5.71-12.78-9.01
			c-9.97-8.19-18.32-18.05-24.81-29.29c-7.48-12.95-12.1-27.01-13.74-41.78c-0.58-4.14-0.8-8.35-0.65-12.51c0,0,0,0,0,0
			c0.9-25.01,14.35-47.39,35.99-59.88c13.62-7.86,29.06-11.02,44.64-9.14c22.75,2.75,42.37,15.7,53.81,35.52
			c5.8,10.05,9.12,21.48,9.59,33.05c0.07,1.71,0.08,3.45,0.02,5.17c0.76,14.56,8.69,27.55,21.3,34.83
			c4.84,2.79,10.09,4.59,15.61,5.34c8.71,1.18,17.79-0.42,25.61-4.51c2.38-1.38,4.72-2.91,6.95-4.54
			c8.75-6.41,15.96-14.46,21.43-23.93c4.52-7.82,7.62-16.26,9.22-25.07c1.43-7.9,8.95-13.19,16.87-11.85
			c7.92,1.33,13.29,8.79,12.06,16.72c-6.81,43.77-32.69,81.57-71.01,103.69C250.13,339.01,225.05,345.51,199.99,345.51z
			 M99.94,231.63c-0.09,2.51,0.05,5.05,0.4,7.55c0.02,0.16,0.04,0.33,0.06,0.5c1.17,10.78,4.54,21.05,10,30.52
			c4.72,8.18,10.79,15.34,18.03,21.28c2.94,2.42,6.09,4.63,9.37,6.6c0.09,0.05,0.18,0.11,0.27,0.17
			c34.01,21.38,76.1,23.66,111.9,6.56c-0.78-0.08-1.56-0.17-2.33-0.28c-9.31-1.26-18.17-4.29-26.34-9
			c-21.52-12.43-34.97-34.7-35.97-59.57c-0.02-0.39-0.02-0.79,0-1.18c0.05-1.15,0.05-2.32,0-3.46c-0.28-6.94-2.2-13.53-5.68-19.57
			c-6.79-11.75-18.42-19.43-31.92-21.06c-9.23-1.11-18.37,0.76-26.45,5.42C108.45,203.51,100.48,216.79,99.94,231.63L99.94,231.63z"
			/>
	</g>
</g>
</svg>
