<svg width="2000" height="2000" viewBox="0 0 2000 2000" fill="none" xmlns="http://www.w3.org/2000/svg">
<g clip-path="url(#clip0_33_18)">
<path d="M2000 1000C2000 447.715 1552.28 0 1000 0C447.715 0 0 447.715 0 1000C0 1552.28 447.715 2000 1000 2000C1552.28 2000 2000 1552.28 2000 1000Z" fill="#100134"/>
<path d="M1272.72 1000.01C1272.72 1244.77 1071.76 1443.19 823.862 1443.19C575.963 1443.19 375 1244.77 375 1000.01C375 755.244 575.963 556.825 823.862 556.825C1071.76 556.825 1272.72 755.244 1272.72 1000.01ZM559.034 1000.01C559.034 1144.42 677.6 1261.49 823.862 1261.49C970.125 1261.49 1088.69 1144.42 1088.69 1000.01C1088.69 855.6 970.125 738.531 823.862 738.531C677.6 738.531 559.034 855.6 559.034 1000.01Z" fill="white"/>
<path d="M1625 1000C1625 1345.17 1345.17 1625 1000 1625C654.819 1625 375 1345.17 375 1000C375 654.819 654.819 375 1000 375C1345.17 375 1625 654.819 1625 1000ZM562.5 1000C562.5 1241.62 758.375 1437.5 1000 1437.5C1241.62 1437.5 1437.5 1241.62 1437.5 1000C1437.5 758.375 1241.62 562.5 1000 562.5C758.375 562.5 562.5 758.375 562.5 1000Z" fill="white"/>
</g>
<defs>
<clipPath id="clip0_33_18">
<rect width="2000" height="2000" fill="white"/>
</clipPath>
</defs>
</svg>
